<mxfile host="app.diagrams.net" modified="2020-10-27T21:13:44.877Z" agent="5.0 (Windows NT 10.0; Win64; x64) AppleWebKit/537.36 (KHTML, like Gecko) Chrome/86.0.4240.111 Safari/537.36" etag="gSVgQVqiR8rgAuF9diMd" version="13.8.5" type="github">
  <diagram id="6avWBaQyMnj3on4ROReZ" name="Page-1">
    <mxGraphModel dx="1422" dy="832" grid="1" gridSize="10" guides="1" tooltips="1" connect="1" arrows="1" fold="1" page="1" pageScale="1" pageWidth="850" pageHeight="1100" math="0" shadow="0">
      <root>
        <mxCell id="0" />
        <mxCell id="1" parent="0" />
        <mxCell id="0_h-qgxptCiCcE1-1eNt-1" value="Join Server" style="ellipse;whiteSpace=wrap;html=1;" vertex="1" parent="1">
          <mxGeometry x="310" y="60" width="180" height="80" as="geometry" />
        </mxCell>
        <mxCell id="0_h-qgxptCiCcE1-1eNt-2" value="" style="endArrow=classic;html=1;" edge="1" parent="1" source="0_h-qgxptCiCcE1-1eNt-1" target="0_h-qgxptCiCcE1-1eNt-3">
          <mxGeometry width="50" height="50" relative="1" as="geometry">
            <mxPoint x="380" y="470" as="sourcePoint" />
            <mxPoint x="404" y="260" as="targetPoint" />
          </mxGeometry>
        </mxCell>
        <mxCell id="0_h-qgxptCiCcE1-1eNt-12" style="edgeStyle=orthogonalEdgeStyle;rounded=0;orthogonalLoop=1;jettySize=auto;html=1;exitX=1;exitY=1;exitDx=0;exitDy=0;entryX=0.5;entryY=0;entryDx=0;entryDy=0;" edge="1" parent="1" source="0_h-qgxptCiCcE1-1eNt-3" target="0_h-qgxptCiCcE1-1eNt-8">
          <mxGeometry relative="1" as="geometry" />
        </mxCell>
        <mxCell id="0_h-qgxptCiCcE1-1eNt-14" style="edgeStyle=orthogonalEdgeStyle;rounded=0;orthogonalLoop=1;jettySize=auto;html=1;exitX=0;exitY=1;exitDx=0;exitDy=0;entryX=0.5;entryY=0;entryDx=0;entryDy=0;" edge="1" parent="1" source="0_h-qgxptCiCcE1-1eNt-3" target="0_h-qgxptCiCcE1-1eNt-7">
          <mxGeometry relative="1" as="geometry" />
        </mxCell>
        <mxCell id="0_h-qgxptCiCcE1-1eNt-3" value="Is the UUID in the database?" style="rounded=0;whiteSpace=wrap;html=1;" vertex="1" parent="1">
          <mxGeometry x="280" y="230" width="240" height="60" as="geometry" />
        </mxCell>
        <mxCell id="0_h-qgxptCiCcE1-1eNt-5" value="Yes" style="text;html=1;align=center;verticalAlign=middle;resizable=0;points=[];autosize=1;" vertex="1" parent="1">
          <mxGeometry x="240" y="380" width="40" height="20" as="geometry" />
        </mxCell>
        <mxCell id="0_h-qgxptCiCcE1-1eNt-37" style="edgeStyle=orthogonalEdgeStyle;rounded=0;jumpStyle=none;orthogonalLoop=1;jettySize=auto;html=1;endArrow=classic;endFill=1;strokeColor=#000000;entryX=0;entryY=0.5;entryDx=0;entryDy=0;" edge="1" parent="1" target="0_h-qgxptCiCcE1-1eNt-7">
          <mxGeometry relative="1" as="geometry">
            <mxPoint x="130" y="570" as="targetPoint" />
            <mxPoint x="50" y="560" as="sourcePoint" />
            <Array as="points">
              <mxPoint x="50" y="490" />
            </Array>
          </mxGeometry>
        </mxCell>
        <mxCell id="0_h-qgxptCiCcE1-1eNt-7" value="Let them in" style="ellipse;whiteSpace=wrap;html=1;" vertex="1" parent="1">
          <mxGeometry x="150" y="450" width="120" height="80" as="geometry" />
        </mxCell>
        <mxCell id="0_h-qgxptCiCcE1-1eNt-23" style="edgeStyle=orthogonalEdgeStyle;rounded=0;orthogonalLoop=1;jettySize=auto;html=1;exitX=0.5;exitY=1;exitDx=0;exitDy=0;entryX=0.5;entryY=0;entryDx=0;entryDy=0;jumpStyle=none;dashed=1;" edge="1" parent="1" source="0_h-qgxptCiCcE1-1eNt-8" target="0_h-qgxptCiCcE1-1eNt-15">
          <mxGeometry relative="1" as="geometry" />
        </mxCell>
        <mxCell id="0_h-qgxptCiCcE1-1eNt-8" value="Generate a random token and send them a URL with it included" style="rounded=0;whiteSpace=wrap;html=1;" vertex="1" parent="1">
          <mxGeometry x="560" y="380" width="170" height="60" as="geometry" />
        </mxCell>
        <mxCell id="0_h-qgxptCiCcE1-1eNt-21" value="" style="edgeStyle=orthogonalEdgeStyle;rounded=0;orthogonalLoop=1;jettySize=auto;html=1;" edge="1" parent="1" source="0_h-qgxptCiCcE1-1eNt-15" target="0_h-qgxptCiCcE1-1eNt-16">
          <mxGeometry relative="1" as="geometry" />
        </mxCell>
        <mxCell id="0_h-qgxptCiCcE1-1eNt-15" value="Get request with a token" style="ellipse;whiteSpace=wrap;html=1;" vertex="1" parent="1">
          <mxGeometry x="360" y="580" width="170" height="80" as="geometry" />
        </mxCell>
        <mxCell id="0_h-qgxptCiCcE1-1eNt-25" style="edgeStyle=orthogonalEdgeStyle;rounded=0;jumpStyle=none;orthogonalLoop=1;jettySize=auto;html=1;exitX=0.5;exitY=1;exitDx=0;exitDy=0;entryX=0.5;entryY=0;entryDx=0;entryDy=0;dashed=1;strokeColor=#000000;" edge="1" parent="1" source="0_h-qgxptCiCcE1-1eNt-16" target="0_h-qgxptCiCcE1-1eNt-24">
          <mxGeometry relative="1" as="geometry" />
        </mxCell>
        <mxCell id="0_h-qgxptCiCcE1-1eNt-16" value="Login and get User ID (Microsoft)" style="rounded=0;whiteSpace=wrap;html=1;" vertex="1" parent="1">
          <mxGeometry x="385" y="720" width="120" height="60" as="geometry" />
        </mxCell>
        <mxCell id="0_h-qgxptCiCcE1-1eNt-17" value="No" style="text;html=1;align=center;verticalAlign=middle;resizable=0;points=[];autosize=1;" vertex="1" parent="1">
          <mxGeometry x="560" y="340" width="30" height="20" as="geometry" />
        </mxCell>
        <mxCell id="0_h-qgxptCiCcE1-1eNt-27" style="edgeStyle=orthogonalEdgeStyle;rounded=0;jumpStyle=none;orthogonalLoop=1;jettySize=auto;html=1;exitX=0.5;exitY=1;exitDx=0;exitDy=0;entryX=0.5;entryY=0;entryDx=0;entryDy=0;strokeColor=#000000;" edge="1" parent="1" source="0_h-qgxptCiCcE1-1eNt-24" target="0_h-qgxptCiCcE1-1eNt-26">
          <mxGeometry relative="1" as="geometry" />
        </mxCell>
        <mxCell id="0_h-qgxptCiCcE1-1eNt-24" value="Receive token + user id from webapp" style="ellipse;whiteSpace=wrap;html=1;" vertex="1" parent="1">
          <mxGeometry x="70" y="720" width="150" height="80" as="geometry" />
        </mxCell>
        <mxCell id="0_h-qgxptCiCcE1-1eNt-30" style="edgeStyle=orthogonalEdgeStyle;rounded=0;jumpStyle=none;orthogonalLoop=1;jettySize=auto;html=1;exitX=0.5;exitY=1;exitDx=0;exitDy=0;strokeColor=#000000;" edge="1" parent="1" source="0_h-qgxptCiCcE1-1eNt-26" target="0_h-qgxptCiCcE1-1eNt-28">
          <mxGeometry relative="1" as="geometry" />
        </mxCell>
        <mxCell id="0_h-qgxptCiCcE1-1eNt-26" value="Get uuid from token" style="rounded=0;whiteSpace=wrap;html=1;" vertex="1" parent="1">
          <mxGeometry x="85" y="850" width="120" height="60" as="geometry" />
        </mxCell>
        <mxCell id="0_h-qgxptCiCcE1-1eNt-36" style="edgeStyle=orthogonalEdgeStyle;rounded=0;jumpStyle=none;orthogonalLoop=1;jettySize=auto;html=1;exitX=0.5;exitY=1;exitDx=0;exitDy=0;strokeColor=#000000;endArrow=none;endFill=0;" edge="1" parent="1" source="0_h-qgxptCiCcE1-1eNt-28">
          <mxGeometry relative="1" as="geometry">
            <mxPoint x="50" y="560" as="targetPoint" />
          </mxGeometry>
        </mxCell>
        <mxCell id="0_h-qgxptCiCcE1-1eNt-28" value="Add uuid and user ID to database, or replace if user ID is already set." style="rounded=0;whiteSpace=wrap;html=1;" vertex="1" parent="1">
          <mxGeometry x="85" y="970" width="120" height="60" as="geometry" />
        </mxCell>
        <mxCell id="0_h-qgxptCiCcE1-1eNt-38" value="Plugin" style="text;html=1;align=center;verticalAlign=middle;resizable=0;points=[];autosize=1;" vertex="1" parent="1">
          <mxGeometry x="130" y="670" width="50" height="20" as="geometry" />
        </mxCell>
        <mxCell id="0_h-qgxptCiCcE1-1eNt-39" value="Webapp" style="text;html=1;align=center;verticalAlign=middle;resizable=0;points=[];autosize=1;" vertex="1" parent="1">
          <mxGeometry x="370" y="540" width="60" height="20" as="geometry" />
        </mxCell>
        <mxCell id="0_h-qgxptCiCcE1-1eNt-40" value="Plugin" style="text;html=1;align=center;verticalAlign=middle;resizable=0;points=[];autosize=1;" vertex="1" parent="1">
          <mxGeometry x="365" y="20" width="50" height="20" as="geometry" />
        </mxCell>
      </root>
    </mxGraphModel>
  </diagram>
</mxfile>
